<svg width="224" height="36" xmlns="http://www.w3.org/2000/svg"><g fill="none" fill-rule="evenodd"><path d="M11.086 21.333c0 .341 0 .681-.109 1.021a3.706 3.706 0 0 1-3.549 2.529c-1.429 0-2.562-.83-2.562-2.643 0-2.793 3.038-3.474 6.22-3.434v2.527zm4.393-4.565c0-4.039-1.645-7.775-7.356-7.775-2.819 0-5.125.793-6.444 1.622l.88 3.022c1.208-.796 3.037-1.36 4.796-1.36 3.147 0 3.622 2 3.622 3.207v.303C4.388 15.748.4 18.125.4 22.73c0 2.791 2.014 5.473 5.599 5.473 2.342 0 4.21-1.019 5.271-2.453h.111l.329 2.037h4.064c-.22-1.133-.295-2.754-.295-4.416v-6.603zM28.219 8.993c-2.965 0-4.905 1.735-5.71 3.17h-.111l-.218-2.754h-3.919c.075 1.584.147 3.358.147 5.471v12.907h4.502V16.955c0-.527.075-1.094.22-1.471.476-1.397 1.721-2.717 3.514-2.717 2.453 0 3.404 1.999 3.404 4.643v10.377h4.503V16.88c0-5.811-3.222-7.887-6.332-7.887M49.448 19.825c0 .489-.036.943-.147 1.358-.438 2.001-2.05 3.284-3.877 3.284-2.856 0-4.467-2.453-4.467-5.85 0-3.396 1.611-6.038 4.501-6.038 2.052 0 3.478 1.472 3.881 3.245.073.378.109.866.109 1.245v2.756zM53.95.993h-4.502v10.378h-.073c-.804-1.359-2.561-2.378-5.014-2.378-4.282 0-8.017 3.661-7.979 9.813 0 5.661 3.367 9.397 7.648 9.397 2.564 0 4.722-1.283 5.785-3.32h.073l.22 2.904h3.99a96.833 96.833 0 0 1-.148-5.17V.993zM66.946 9.106a4.622 4.622 0 0 0-1.063-.113c-1.938 0-4.026 1.321-4.904 3.887h-.108l-.184-3.471h-3.881c.111 1.622.148 3.432.148 5.924v12.454h4.502v-9.549c0-.489.036-.98.108-1.396.404-2.113 1.905-3.511 4.026-3.511.551 0 .952.041 1.356.116V9.106M71.01 16.655c.182-1.889 1.351-4.492 4.135-4.492 3.001 0 3.733 2.793 3.697 4.492H71.01zm12.08 1.283c0-4.039-1.906-8.945-7.689-8.945-5.71 0-8.711 4.793-8.711 9.886 0 5.625 3.402 9.287 9.187 9.287 2.562 0 4.684-.492 6.222-1.17l-.656-3.172c-1.39.49-2.857.83-4.944.83-2.893 0-5.38-1.431-5.489-4.756h11.931c.074-.414.149-1.092.149-1.96z" fill="#1C75BC"/><path d="M104.611 9.145c-1.686 0-2.819.451-3.88 1.283a7.124 7.124 0 0 0-2.014 2.376h-.074c-.768-2.151-2.598-3.659-4.978-3.659-2.965 0-4.611 1.622-5.599 3.357h-.109l-.147-2.981h-2.82c.075 1.51.147 3.018.147 4.945v13.321h3.149V16.805c0-.566.075-1.169.256-1.622.512-1.661 2.013-3.321 3.987-3.321 2.455 0 3.697 2.075 3.697 4.98v10.945h3.149V16.503c0-.605.111-1.17.256-1.66.585-1.585 1.977-2.981 3.845-2.981 2.562 0 3.842 2.075 3.842 5.622v10.303h3.148V17.069c0-6.341-3.476-7.924-5.855-7.924M123.17 21.637c0 .302-.039.677-.147 1.056-.513 1.547-2.014 3.057-4.356 3.057-1.609 0-3.002-.98-3.002-3.17 0-3.547 3.994-4.19 7.505-4.115v3.172zm3.11-5.06c0-3.622-1.317-7.432-6.735-7.432-2.233 0-4.39.641-5.855 1.583l.732 2.227c1.243-.867 2.965-1.357 4.647-1.357 3.625-.039 4.026 2.716 4.026 4.189v.376c-6.844-.038-10.649 2.378-10.649 6.794 0 2.641 1.829 5.246 5.415 5.246 2.527 0 4.43-1.283 5.416-2.719h.113l.254 2.303h2.895c-.184-1.246-.259-2.793-.259-4.377v-6.833zM141.729 20.126c0 .529-.039.981-.147 1.434-.585 2.454-2.562 3.961-4.725 3.961-3.439 0-5.232-3.054-5.232-6.755 0-4 1.975-7.019 5.309-7.019 2.414 0 4.171 1.736 4.648 3.813.108.414.147.981.147 1.395v3.171zM144.914.993h-3.185v10.905h-.075c-.805-1.432-2.598-2.753-5.345-2.753-4.28 0-7.981 3.696-7.943 9.773 0 5.549 3.334 9.285 7.614 9.285 2.895 0 5.017-1.549 5.969-3.586h.11l.144 3.17h2.856a89.708 89.708 0 0 1-.145-4.719V.993zM157.796 21.637c0 .302-.034.677-.145 1.056-.513 1.547-2.018 3.057-4.357 3.057-1.609 0-3.002-.98-3.002-3.17 0-3.547 3.993-4.19 7.504-4.115v3.172zm3.11-5.06c0-3.622-1.317-7.432-6.733-7.432-2.234 0-4.392.641-5.857 1.583l.732 2.227c1.244-.867 2.965-1.357 4.648-1.357 3.626-.039 4.03 2.716 4.03 4.189v.376c-6.849-.038-10.65 2.378-10.65 6.794 0 2.641 1.827 5.246 5.414 5.246 2.524 0 4.428-1.283 5.415-2.719h.111l.258 2.303h2.891c-.184-1.246-.259-2.793-.259-4.377v-6.833zM173.027 9.22c-.295-.038-.549-.075-.882-.075-2.158 0-4.135 1.546-4.941 4h-.11l-.144-3.624h-2.821c.11 1.699.148 3.548.148 5.7v12.566h3.221v-9.736c0-.529.034-1.096.109-1.548.441-2.491 2.052-4.226 4.32-4.226.438 0 .767 0 1.1.076V9.22M183.563 21.637c0 .302-.034.677-.143 1.056-.514 1.547-2.014 3.057-4.356 3.057-1.61 0-3.002-.98-3.002-3.17 0-3.547 3.99-4.19 7.501-4.115v3.172zm3.115-5.06c0-3.622-1.317-7.432-6.735-7.432-2.233 0-4.391.641-5.856 1.583l.733 2.227c1.242-.867 2.963-1.357 4.647-1.357 3.624-.039 4.026 2.716 4.026 4.189v.376c-6.844-.038-10.65 2.378-10.65 6.794 0 2.641 1.829 5.246 5.416 5.246 2.525 0 4.427-1.283 5.417-2.719h.108l.258 2.303h2.894c-.186-1.246-.258-2.793-.258-4.377v-6.833zM198.869 9.145c-2.929 0-4.978 1.697-5.858 3.394h-.072l-.184-3.018h-2.856c.111 1.51.147 3.018.147 4.945v13.321h3.221V16.805c0-.566.073-1.133.221-1.547.584-1.849 2.232-3.396 4.32-3.396 3.037 0 4.099 2.452 4.099 5.396v10.529h3.218v-10.87c0-6.264-3.805-7.772-6.256-7.772M220.465 20.014c0 .564-.075 1.207-.257 1.773-.659 2.113-2.452 3.397-4.464 3.397-3.444 0-5.237-2.981-5.237-6.567 0-4.229 2.197-6.907 5.271-6.907 2.38 0 3.917 1.585 4.504 3.548.149.414.183.905.183 1.471v3.285zm.515-10.493l-.111 2.756h-.076c-.804-1.51-2.45-3.132-5.528-3.132-4.1 0-8.017 3.472-8.017 9.661 0 5.057 3.15 8.905 7.541 8.905 2.748 0 4.685-1.358 5.642-3.057h.07v2c0 4.643-2.416 6.416-5.712 6.416-2.195 0-4.024-.677-5.198-1.47l-.804 2.566c1.429.98 3.771 1.508 5.893 1.508 2.236 0 4.724-.565 6.479-2.19 1.684-1.621 2.525-4.15 2.525-8.375V14.503c0-2.189.038-3.698.149-4.982h-2.853z" fill="#00264F"/></g></svg>